<?xml version="1.0" encoding="UTF-8"?>
<svg width="582" height="764" version="1.1" viewBox="0 0 253 332.12" xmlns="http://www.w3.org/2000/svg" xmlns:xlink="http://www.w3.org/1999/xlink">
    <g transform="translate(-248.81 -147.63)">
        <path d="m256.64 158.07h240.39v317.34h-240.39z" fill="#003340" stroke-width=".34003"/>
        <path d="m357.27 414.33h36.081v36.081h-36.081z" fill="#728f9c" stroke-width=".19856"/>
        <path transform="translate(-22.216 -24.504)" d="m379.49 201.48h36.081v36.081h-36.081z" fill="#002833" stroke-width="2.427"/>
    </g>
    <g transform="translate(-271.03 -172.14)">
        <g fill="#023846">
            <g stroke-width=".13554">
                <path transform="matrix(-1 0 0 1 1.7653e-6 -1.3766e-6)" d="m-524.03 413.83h253v6.9554h-253z"/>
                <path transform="matrix(-1 0 0 1 1.7653e-6 -1.3766e-6)" d="m-524.03 334.72h253v6.9554h-253z"/>
                <path transform="matrix(-1 0 0 1 1.7653e-6 -1.3766e-6)" d="m-524.03 255.6h253v6.9554h-253z"/>
            </g>
            <path transform="translate(1.7653e-6)" d="m433.61 179.09h6.9554v325.16h-6.9554z" stroke-width=".15366"/>
            <path d="m354.49 179.09h6.9554v325.16h-6.9554z" stroke-width=".15366"/>
        </g>
        <path d="m271.03 172.14h243.44v11.302h-243.44z" fill="#e4ddd9" stroke-width=".16948"/>
        <path transform="scale(-1,1)" d="m-282.33 172.14h11.302v332.12h-11.302z" fill="#e4ddd9" stroke-width=".19796"/>
        <g fill="#8099a5">
            <path transform="translate(1.7653e-6)" d="m282.33 492.95h241.7v11.302h-241.7z" stroke-width=".16888"/>
            <path transform="scale(-1,1)" d="m-524.03 183.44h11.302v320.82h-11.302z" stroke-width=".19456"/>
            <path transform="matrix(-.70711 .70711 .70711 .70711 1.7653e-6 -1.3766e-6)" d="m148.93 548.21h18.258v11.302h-18.258z" stroke-width=".43471"/>
        </g>
        <path transform="matrix(-.70711 .70711 .70711 .70711 1.7653e-6 -1.3766e-6)" d="m149.55 537.52h18.258v11.302h-18.258z" fill="#e4ddd9" stroke-width=".55251"/>
        <path transform="matrix(-.70711 .70711 .70711 .70711 1.7653e-6 -1.3766e-6)" d="m-251.1 492.26h18.258v11.302h-18.258z" fill="#8099a5" stroke-width=".43471"/>
        <path transform="matrix(-.70711 .70711 .70711 .70711 1.7653e-6 -1.3766e-6)" d="m-251.72 481.58h18.258v11.302h-18.258z" fill="#e4ddd9" stroke-width=".55251"/>
        <g transform="matrix(.43471 0 0 .43471 454.56 421.88)" fill="#a2afb6" style="shape-inside:url(#rect43712-9-63);white-space:pre" aria-label="%">
            <path d="m35.604 79.684c10.092 0 17.284-6.96 17.284-20.532s-7.192-20.532-17.284-20.532-17.284 6.96-17.284 20.532 7.192 20.532 17.284 20.532zm0-6.264c-5.568 0-9.396-4.06-9.396-11.368v-5.8c0-7.308 3.828-11.368 9.396-11.368s9.396 4.06 9.396 11.368v5.8c0 7.308-3.828 11.368-9.396 11.368zm20.996 1.392h8.352l18.56-34.8h-8.352zm-38.512 46.168h8.352l18.56-34.8h-8.352zm47.908 1.392c10.092 0 17.284-6.96 17.284-20.532s-7.192-20.532-17.284-20.532-17.284 6.96-17.284 20.532 7.192 20.532 17.284 20.532zm0-6.264c-5.568 0-9.396-4.06-9.396-11.368v-5.8c0-7.308 3.828-11.368 9.396-11.368s9.396 4.06 9.396 11.368v5.8c0 7.308-3.828 11.368-9.396 11.368z"/>
        </g>
        <g transform="matrix(.43471 0 0 .43471 375.45 419.71)" fill="#002833" style="shape-inside:url(#rect43712-9-0);white-space:pre" aria-label="=">
            <path d="m78.408 77.828v-7.888h-55.216v7.888zm0 23.2v-7.888h-55.216v7.888z"/>
        </g>
        <g transform="matrix(.43471 0 0 .43471 296.33 419.96)" fill="#a2afb6" style="shape-inside:url(#rect43712-9-23);white-space:pre" aria-label="|">
            <path d="m54.86 136.99v-104.17h-8.12v104.17z"/>
        </g>
        <g transform="matrix(.43471 0 0 .43471 457.84 340.85)" fill="#d9a531" style="shape-inside:url(#rect43712-9-6);white-space:pre" aria-label="]">
            <path d="m27.02 32.82v7.192h24.476v89.784h-24.476v7.192h32.48v-104.17z"/>
        </g>
        <g transform="matrix(.43471 0 0 .43471 375.45 340.85)" fill="#2ca5a2" style="shape-inside:url(#rect43712-9-4);white-space:pre" aria-label="}">
            <path d="m28.18 32.82v7.192h22.156v8.932c0 6.38-2.204 9.048-4.64 12.296-2.552 3.364-5.452 6.844-5.452 11.716 0 6.38 4.988 10.672 12.76 11.716v0.464c-7.772 1.044-12.76 5.336-12.76 11.716 0 4.872 2.9 8.352 5.452 11.716 2.436 3.248 4.64 5.916 4.64 12.296v8.932h-22.156v7.192h20.416c6.38 0 9.744-4.176 9.744-9.512v-7.308c0-8.352-3.712-12.18-6.496-15.66-2.552-3.132-3.48-5.104-3.48-7.54 0-5.8 5.568-8.468 16.008-8.468h9.048v-7.192h-9.048c-10.44 0-16.008-2.668-16.008-8.468 0-2.436 0.928-4.408 3.48-7.54 2.784-3.48 6.496-7.308 6.496-15.66v-7.308c0-5.336-3.364-9.512-9.744-9.512z"/>
        </g>
        <g transform="matrix(.43471 0 0 .43471 296.33 340.54)" fill="#f85ba8" style="shape-inside:url(#rect43712-9-5);white-space:pre" aria-label="&gt;">
            <path d="m25.86 119.12 49.88-28.884v-9.28l-49.88-28.884v9.86l41.18 23.316v0.928l-41.18 23.316z"/>
        </g>
        <g transform="matrix(.43471 0 0 .43471 457.06 261.73)" fill="#f96829" style="shape-inside:url(#rect43712-9-32);white-space:pre" aria-label=")">
            <path d="m61.82 84.904c0-22.62-11.02-42.34-24.128-52.084h-9.396c13.456 10.092 24.824 27.26 24.824 47.096v9.976c0 19.836-11.368 37.004-24.824 47.096h9.396c13.108-9.744 24.128-29.464 24.128-52.084z"/>
        </g>
        <g transform="matrix(.43471 0 0 .43471 375.45 261.73)" fill="#3399f6" style="shape-inside:url(#rect43712-9-2);white-space:pre" aria-label="\">
            <path d="m75.16 136.99-40.368-104.17h-8.352l40.368 104.17z"/>
        </g>
        <g transform="matrix(.43471 0 0 .43471 296.66 261.12)" fill="#ac7df6" style="shape-inside:url(#rect43712-9-3);white-space:pre" aria-label="@">
            <path d="m68.664 126.55h-14.268c-18.444 0-22.504-14.152-22.504-32.132v-14.964c0-23.316 5.452-33.408 19.256-33.408 12.412 0 17.516 8.12 17.516 21.228v2.784h-0.58c-1.508-3.944-4.756-8.004-11.6-8.004-9.396 0-15.428 7.772-15.428 24.94 0 17.052 6.032 24.824 15.428 24.824 6.844 0 10.092-4.06 11.6-8.004h0.58v6.612h8.236v-43.152c0-16.24-7.424-28.652-25.984-28.652-18.096 0-27.724 11.716-27.724 47.56 0 32.016 7.656 47.792 31.204 47.792h14.268zm-9.164-21.692c-6.38 0-9.86-4.06-9.86-14.384v-7.076c0-10.324 3.48-14.384 9.86-14.384 5.568 0 9.164 3.132 9.164 9.048v17.748c0 5.916-3.596 9.048-9.164 9.048z"/>
        </g>
        <g transform="matrix(.43471 0 0 .43471 454.56 182.06)" fill="#28ac28" style="shape-inside:url(#rect43712-9-8);white-space:pre" aria-label="*">
            <path d="m50.8 94.996 14.5 19.952 6.612-4.872-14.384-19.72 23.084-7.656-2.436-7.656-23.084 7.424v-25.056h-8.584v25.056l-23.084-7.424-2.436 7.656 23.084 7.656-14.384 19.72 6.612 4.872z"/>
        </g>
        <g transform="matrix(.43471 0 0 .43471 375.45 182.31)" fill="#f84770" stroke-width="4" style="shape-inside:url(#rect43712-4);white-space:pre" aria-label="~">
            <path d="m63.328 93.488c8.584 0 14.152-5.568 16.24-12.876l-7.076-2.9c-1.972 4.64-4.524 8.004-9.048 8.004-3.828 0-8.004-2.32-12.064-4.292s-8.352-3.712-13.108-3.712c-8.584 0-14.152 5.568-16.24 12.876l7.076 2.9c1.972-4.64 4.524-8.004 9.048-8.004 3.828 0 8.004 2.32 12.064 4.292s8.352 3.712 13.108 3.712z"/>
        </g>
        <g transform="matrix(.43471 0 0 .43471 273.2 191.76)" fill="#bb8e29" style="shape-inside:url(#rect43712);white-space:pre" aria-label="^">
            <path d="m133.58 84.092-24.36-44.08h-10.44l-24.36 44.08 7.192 3.596 21.924-39.672h0.464l21.924 39.672z"/>
        </g>
    </g>
</svg>
