<?xml version="1.0" encoding="UTF-8"?>
<svg width="82.753mm" height="108.2mm" version="1.1" viewBox="0 0 82.753 108.2" xmlns="http://www.w3.org/2000/svg">
    <g transform="translate(-28.451 -48.644)">
        <path d="m28.451 48.644h82.753v108.2h-82.753z" fill="#002b36" stop-color="#000000" stroke-width=".15248"/>
        <text transform="scale(.26458)" fill="#000000" font-family="sans-serif" font-size="40px" style="line-height:1.25;shape-inside:url(#rect4692);white-space:pre" xml:space="preserve"/>
        <g transform="matrix(.26458 0 0 .26458 21.833 22.324)" style="shape-inside:url(#rect16666);white-space:pre" aria-label="*Comment *Constant *Identifier *Statement *PreProc *Type *Special ">
            <g fill="#586e75">
                <path d="m61.357 144.98 5 6.88 2.28-1.68-4.96-6.8 7.96-2.64-0.84-2.64-7.96 2.56v-8.64h-2.96v8.64l-7.96-2.56-0.84 2.64 7.96 2.64-4.96 6.8 2.28 1.68z"/>
                <path d="m86.277 154.42c5.12 0 7.24-3.08 8.6-6.12l-2.88-1.32c-1 2.48-2.32 4.52-5.72 4.52-4.44 0-6.56-3.64-6.56-9.24v-4.56c0-5.6 2.12-9.24 6.56-9.24 3.4 0 4.72 2.04 5.72 4.52l2.88-1.32c-1.36-3.04-3.48-6.12-8.6-6.12-6.8 0-10.12 5.16-10.12 14.44s3.32 14.44 10.12 14.44z"/>
                <path d="m109.36 154.42c5.8 0 9.36-4.24 9.36-10.8s-3.56-10.8-9.36-10.8-9.36 4.24-9.36 10.8 3.56 10.8 9.36 10.8zm0-2.76c-3.56 0-5.96-2.12-5.96-6.56v-2.96c0-4.44 2.4-6.56 5.96-6.56s5.96 2.12 5.96 6.56v2.96c0 4.44-2.4 6.56-5.96 6.56z"/>
                <path d="m126.48 153.94v-15.16c0-2.2 1.2-3.32 2.92-3.32 1.88 0 2.48 1.16 2.48 4.68v13.8h2.96v-15.16c0-2.2 1.2-3.32 2.88-3.32 1.92 0 2.52 1.16 2.52 4.68v13.8h2.96v-14.32c0-4.36-0.88-6.8-4.24-6.8-2.44 0-3.72 1.36-4.48 3.24h-0.12c-0.24-1.92-1.4-3.24-3.76-3.24-2.28 0-3.32 1.28-3.96 2.88h-0.16v-2.4h-2.96v20.64z"/>
                <path d="m150.48 153.94v-15.16c0-2.2 1.2-3.32 2.92-3.32 1.88 0 2.48 1.16 2.48 4.68v13.8h2.96v-15.16c0-2.2 1.2-3.32 2.88-3.32 1.92 0 2.52 1.16 2.52 4.68v13.8h2.96v-14.32c0-4.36-0.88-6.8-4.24-6.8-2.44 0-3.72 1.36-4.48 3.24h-0.12c-0.24-1.92-1.4-3.24-3.76-3.24-2.28 0-3.32 1.28-3.96 2.88h-0.16v-2.4h-2.96v20.64z"/>
                <path d="m181.72 154.42c4.08 0 7.04-2 8.28-4.76l-2.36-1.6c-1.08 2.24-3.16 3.6-5.92 3.6-3.88 0-6.32-2.64-6.32-6.28v-0.96h15.28v-1.52c0-5.84-3.6-10.08-9.16-10.08-5.6 0-9.48 4.24-9.48 10.84 0 6.52 3.76 10.76 9.68 10.76zm-0.2-18.96c3.4 0 5.72 2.48 5.72 6.12v0.44h-11.84v-0.28c0-3.6 2.6-6.28 6.12-6.28z"/>
                <path d="m200.48 153.94v-14.32c0-2.72 2.56-3.96 5.12-3.96 3.16 0 4.88 1.84 4.88 5.6v12.68h3.2v-13.24c0-5-2.84-7.88-7.16-7.88-3.4 0-5 1.8-5.88 3.84h-0.16v-3.36h-3.2v20.64z"/>
                <path d="m238.4 153.94v-2.72h-9.4v-15.2h9.4v-2.72h-9.4v-7.28h-3.08v5.4c0 1.4-0.52 1.88-1.88 1.88h-5.12v2.72h6.88v13.2c0 2.76 1.44 4.72 4.56 4.72z"/>
            </g>
            <g fill="#2aa198">
                <path d="m61.357 198.38 5 6.88 2.28-1.68-4.96-6.8 7.96-2.64-0.84-2.64-7.96 2.56v-8.64h-2.96v8.64l-7.96-2.56-0.84 2.64 7.96 2.64-4.96 6.8 2.28 1.68z"/>
                <path d="m86.277 207.82c5.12 0 7.24-3.08 8.6-6.12l-2.88-1.32c-1 2.48-2.32 4.52-5.72 4.52-4.44 0-6.56-3.64-6.56-9.24v-4.56c0-5.6 2.12-9.24 6.56-9.24 3.4 0 4.72 2.04 5.72 4.52l2.88-1.32c-1.36-3.04-3.48-6.12-8.6-6.12-6.8 0-10.12 5.16-10.12 14.44s3.32 14.44 10.12 14.44z"/>
                <path d="m109.36 207.82c5.8 0 9.36-4.24 9.36-10.8s-3.56-10.8-9.36-10.8-9.36 4.24-9.36 10.8 3.56 10.8 9.36 10.8zm0-2.76c-3.56 0-5.96-2.12-5.96-6.56v-2.96c0-4.44 2.4-6.56 5.96-6.56s5.96 2.12 5.96 6.56v2.96c0 4.44-2.4 6.56-5.96 6.56z"/>
                <path d="m128.48 207.34v-14.32c0-2.72 2.56-3.96 5.12-3.96 3.16 0 4.88 1.84 4.88 5.6v12.68h3.2v-13.24c0-5-2.84-7.88-7.16-7.88-3.4 0-5 1.8-5.88 3.84h-0.16v-3.36h-3.2v20.64z"/>
                <path d="m157.6 207.82c5.28 0 8.72-2.36 8.72-6.44 0-4.48-4.12-5.28-7.08-5.72l-3.24-0.48c-1.84-0.28-3.64-0.84-3.64-3 0-2.12 1.8-3.28 5.04-3.28 3.64 0 5.48 1.44 6.44 2.6l2.08-1.96c-1.96-2.08-4.68-3.32-8.4-3.32-4.8 0-8.32 2.04-8.32 6.16 0 4.48 4.16 5.28 7.08 5.72l3.24 0.48c1.88 0.28 3.64 0.84 3.64 3 0 2.44-2.28 3.56-5.48 3.56-3.28 0-5.52-1.16-7.48-3.24l-2.16 1.88c2.16 2.44 5.24 4.04 9.56 4.04z"/>
                <path d="m190.4 207.34v-2.72h-9.4v-15.2h9.4v-2.72h-9.4v-7.28h-3.08v5.4c0 1.4-0.52 1.88-1.88 1.88h-5.12v2.72h6.88v13.2c0 2.76 1.44 4.72 4.56 4.72z"/>
                <path d="m215.36 207.34v-2.8h-2.88v-11.36c0-4.36-3.08-6.96-7.92-6.96-4.2 0-6.84 2-7.88 4.16l2.16 1.6c1.08-1.88 2.76-3.04 5.52-3.04 3.12 0 4.92 1.56 4.92 4.56v2.04h-4.4c-6.2 0-8.88 2.2-8.88 6 0 3.88 2.76 6.28 7.08 6.28 3.36 0 5.32-1.48 6.2-3.84h0.2c0.24 1.92 1.2 3.36 3.68 3.36zm-11.72-2.2c-2.64 0-4.28-1.12-4.28-3.24v-0.84c0-2 1.72-3.12 5.52-3.12h4.4v3.4c0 2.12-2.36 3.8-5.64 3.8z"/>
                <path d="m224.48 207.34v-14.32c0-2.72 2.56-3.96 5.12-3.96 3.16 0 4.88 1.84 4.88 5.6v12.68h3.2v-13.24c0-5-2.84-7.88-7.16-7.88-3.4 0-5 1.8-5.88 3.84h-0.16v-3.36h-3.2v20.64z"/>
                <path d="m262.4 207.34v-2.72h-9.4v-15.2h9.4v-2.72h-9.4v-7.28h-3.08v5.4c0 1.4-0.52 1.88-1.88 1.88h-5.12v2.72h6.88v13.2c0 2.76 1.44 4.72 4.56 4.72z"/>
            </g>
            <g fill="#268bd2">
                <path d="m61.357 251.78 5 6.88 2.28-1.68-4.96-6.8 7.96-2.64-0.84-2.64-7.96 2.56v-8.64h-2.96v8.64l-7.96-2.56-0.84 2.64 7.96 2.64-4.96 6.8 2.28 1.68z"/>
                <path d="m93.997 260.74v-2.68h-6.96v-22.56h6.96v-2.68h-17.28v2.68h6.96v22.56h-6.96v2.68z"/>
                <path d="m114.36 260.74h3.2v-29.6h-3.2v12.32h-0.16c-1.32-2.52-3.48-3.84-6.36-3.84-5.04 0-8.08 4.04-8.08 10.8s3.04 10.8 8.08 10.8c2.88 0 5.04-1.32 6.36-3.84h0.16zm-5.28-2.36c-3.72 0-5.88-2.48-5.88-6.2v-3.52c0-3.72 2.16-6.2 5.88-6.2 2.84 0 5.28 1.48 5.28 4.24v7.44c0 2.76-2.44 4.24-5.28 4.24z"/>
                <path d="m133.72 261.22c4.08 0 7.04-2 8.28-4.76l-2.36-1.6c-1.08 2.24-3.16 3.6-5.92 3.6-3.88 0-6.32-2.64-6.32-6.28v-0.96h15.28v-1.52c0-5.84-3.6-10.08-9.16-10.08-5.6 0-9.48 4.24-9.48 10.84 0 6.52 3.76 10.76 9.68 10.76zm-0.2-18.96c3.4 0 5.72 2.48 5.72 6.12v0.44h-11.84v-0.28c0-3.6 2.6-6.28 6.12-6.28z"/>
                <path d="m152.48 260.74v-14.32c0-2.72 2.56-3.96 5.12-3.96 3.16 0 4.88 1.84 4.88 5.6v12.68h3.2v-13.24c0-5-2.84-7.88-7.16-7.88-3.4 0-5 1.8-5.88 3.84h-0.16v-3.36h-3.2v20.64z"/>
                <path d="m190.4 260.74v-2.72h-9.4v-15.2h9.4v-2.72h-9.4v-7.28h-3.08v5.4c0 1.4-0.52 1.88-1.88 1.88h-5.12v2.72h6.88v13.2c0 2.76 1.44 4.72 4.56 4.72z"/>
                <path d="m206.64 235.54c1.84 0 2.52-0.88 2.52-2.04v-0.64c0-1.16-0.68-2.04-2.52-2.04s-2.52 0.88-2.52 2.04v0.64c0 1.16 0.68 2.04 2.52 2.04zm-9.04 25.2h17.6v-2.72h-6.96v-17.92h-10.64v2.72h7.44v15.2h-7.44z"/>
                <path d="m220.68 260.74h17.52v-2.72h-7.36v-15.2h8.28v-2.72h-8.28v-6.24h8.28v-2.72h-6.92c-3.12 0-4.56 1.96-4.56 4.72v4.24h-7.36v2.72h7.36v15.2h-6.96z"/>
                <path d="m254.64 235.54c1.84 0 2.52-0.88 2.52-2.04v-0.64c0-1.16-0.68-2.04-2.52-2.04s-2.52 0.88-2.52 2.04v0.64c0 1.16 0.68 2.04 2.52 2.04zm-9.04 25.2h17.6v-2.72h-6.96v-17.92h-10.64v2.72h7.44v15.2h-7.44z"/>
                <path d="m277.72 261.22c4.08 0 7.04-2 8.28-4.76l-2.36-1.6c-1.08 2.24-3.16 3.6-5.92 3.6-3.88 0-6.32-2.64-6.32-6.28v-0.96h15.28v-1.52c0-5.84-3.6-10.08-9.16-10.08-5.6 0-9.48 4.24-9.48 10.84 0 6.52 3.76 10.76 9.68 10.76zm-0.2-18.96c3.4 0 5.72 2.48 5.72 6.12v0.44h-11.84v-0.28c0-3.6 2.6-6.28 6.12-6.28z"/>
                <path d="m292.44 260.74h17.24v-2.72h-8v-8.92c0-3.2 2.12-5.8 6.16-5.8h3.88v-3.2h-2.88c-4.32 0-6.16 2.48-6.96 5.2h-0.2v-5.2h-9.24v2.72h6.04v15.2h-6.04z"/>
            </g>
            <g fill="#719e07">
                <path d="m61.357 305.18 5 6.88 2.28-1.68-4.96-6.8 7.96-2.64-0.84-2.64-7.96 2.56v-8.64h-2.96v8.64l-7.96-2.56-0.84 2.64 7.96 2.64-4.96 6.8 2.28 1.68z"/>
                <path d="m85.277 314.62c6.2 0 9.76-3.12 9.76-8.28 0-3.64-1.8-6.68-7.28-7.64l-3-0.52c-3.96-0.68-5.24-2.28-5.24-4.76 0-3.16 2.12-4.8 5.88-4.8 3.48 0 5.48 1.4 7.04 3.44l2.36-2.04c-1.88-2.68-4.92-4.28-9.36-4.28-5.68 0-9.32 2.64-9.32 7.76 0 3.52 1.72 6.68 7.2 7.6l3.12 0.52c3.8 0.64 5.2 2.08 5.2 4.8 0 3.36-2.2 5.32-6.24 5.32-3.36 0-5.64-1.32-7.8-4.04l-2.44 2c2.08 2.88 5.12 4.92 10.12 4.92z"/>
                <path d="m118.4 314.14v-2.72h-9.4v-15.2h9.4v-2.72h-9.4v-7.28h-3.08v5.4c0 1.4-0.52 1.88-1.88 1.88h-5.12v2.72h6.88v13.2c0 2.76 1.44 4.72 4.56 4.72z"/>
                <path d="m143.36 314.14v-2.8h-2.88v-11.36c0-4.36-3.08-6.96-7.92-6.96-4.2 0-6.84 2-7.88 4.16l2.16 1.6c1.08-1.88 2.76-3.04 5.52-3.04 3.12 0 4.92 1.56 4.92 4.56v2.04h-4.4c-6.2 0-8.88 2.2-8.88 6 0 3.88 2.76 6.28 7.08 6.28 3.36 0 5.32-1.48 6.2-3.84h0.2c0.24 1.92 1.2 3.36 3.68 3.36zm-11.72-2.2c-2.64 0-4.28-1.12-4.28-3.24v-0.84c0-2 1.72-3.12 5.52-3.12h4.4v3.4c0 2.12-2.36 3.8-5.64 3.8z"/>
                <path d="m166.4 314.14v-2.72h-9.4v-15.2h9.4v-2.72h-9.4v-7.28h-3.08v5.4c0 1.4-0.52 1.88-1.88 1.88h-5.12v2.72h6.88v13.2c0 2.76 1.44 4.72 4.56 4.72z"/>
                <path d="m181.72 314.62c4.08 0 7.04-2 8.28-4.76l-2.36-1.6c-1.08 2.24-3.16 3.6-5.92 3.6-3.88 0-6.32-2.64-6.32-6.28v-0.96h15.28v-1.52c0-5.84-3.6-10.08-9.16-10.08-5.6 0-9.48 4.24-9.48 10.84 0 6.52 3.76 10.76 9.68 10.76zm-0.2-18.96c3.4 0 5.72 2.48 5.72 6.12v0.44h-11.84v-0.28c0-3.6 2.6-6.28 6.12-6.28z"/>
                <path d="m198.48 314.14v-15.16c0-2.2 1.2-3.32 2.92-3.32 1.88 0 2.48 1.16 2.48 4.68v13.8h2.96v-15.16c0-2.2 1.2-3.32 2.88-3.32 1.92 0 2.52 1.16 2.52 4.68v13.8h2.96v-14.32c0-4.36-0.88-6.8-4.24-6.8-2.44 0-3.72 1.36-4.48 3.24h-0.12c-0.24-1.92-1.4-3.24-3.76-3.24-2.28 0-3.32 1.28-3.96 2.88h-0.16v-2.4h-2.96v20.64z"/>
                <path d="m229.72 314.62c4.08 0 7.04-2 8.28-4.76l-2.36-1.6c-1.08 2.24-3.16 3.6-5.92 3.6-3.88 0-6.32-2.64-6.32-6.28v-0.96h15.28v-1.52c0-5.84-3.6-10.08-9.16-10.08-5.6 0-9.48 4.24-9.48 10.84 0 6.52 3.76 10.76 9.68 10.76zm-0.2-18.96c3.4 0 5.72 2.48 5.72 6.12v0.44h-11.84v-0.28c0-3.6 2.6-6.28 6.12-6.28z"/>
                <path d="m248.48 314.14v-14.32c0-2.72 2.56-3.96 5.12-3.96 3.16 0 4.88 1.84 4.88 5.6v12.68h3.2v-13.24c0-5-2.84-7.88-7.16-7.88-3.4 0-5 1.8-5.88 3.84h-0.16v-3.36h-3.2v20.64z"/>
                <path d="m286.4 314.14v-2.72h-9.4v-15.2h9.4v-2.72h-9.4v-7.28h-3.08v5.4c0 1.4-0.52 1.88-1.88 1.88h-5.12v2.72h6.88v13.2c0 2.76 1.44 4.72 4.56 4.72z"/>
            </g>
            <g fill="#cb4b16">
                <path d="m61.357 358.58 5 6.88 2.28-1.68-4.96-6.8 7.96-2.64-0.84-2.64-7.96 2.56v-8.64h-2.96v8.64l-7.96-2.56-0.84 2.64 7.96 2.64-4.96 6.8 2.28 1.68z"/>
                <path d="m80.317 367.54v-11.84h6.8c5.16 0 7.96-3 7.96-8.04s-2.8-8.04-7.96-8.04h-10.16v27.92zm0-25h6.72c2.8 0 4.48 1.48 4.48 4.08v2.08c0 2.6-1.68 4.08-4.48 4.08h-6.72z"/>
                <path d="m100.44 367.54h17.24v-2.72h-8v-8.92c0-3.2 2.12-5.8 6.16-5.8h3.88v-3.2h-2.88c-4.32 0-6.16 2.48-6.96 5.2h-0.2v-5.2h-9.24v2.72h6.04v15.2h-6.04z"/>
                <path d="m133.72 368.02c4.08 0 7.04-2 8.28-4.76l-2.36-1.6c-1.08 2.24-3.16 3.6-5.92 3.6-3.88 0-6.32-2.64-6.32-6.28v-0.96h15.28v-1.52c0-5.84-3.6-10.08-9.16-10.08-5.6 0-9.48 4.24-9.48 10.84 0 6.52 3.76 10.76 9.68 10.76zm-0.2-18.96c3.4 0 5.72 2.48 5.72 6.12v0.44h-11.84v-0.28c0-3.6 2.6-6.28 6.12-6.28z"/>
                <path d="m152.32 367.54v-11.84h6.8c5.16 0 7.96-3 7.96-8.04s-2.8-8.04-7.96-8.04h-10.16v27.92zm0-25h6.72c2.8 0 4.48 1.48 4.48 4.08v2.08c0 2.6-1.68 4.08-4.48 4.08h-6.72z"/>
                <path d="m172.44 367.54h17.24v-2.72h-8v-8.92c0-3.2 2.12-5.8 6.16-5.8h3.88v-3.2h-2.88c-4.32 0-6.16 2.48-6.96 5.2h-0.2v-5.2h-9.24v2.72h6.04v15.2h-6.04z"/>
                <path d="m205.36 368.02c5.8 0 9.36-4.24 9.36-10.8s-3.56-10.8-9.36-10.8-9.36 4.24-9.36 10.8 3.56 10.8 9.36 10.8zm0-2.76c-3.56 0-5.96-2.12-5.96-6.56v-2.96c0-4.44 2.4-6.56 5.96-6.56s5.96 2.12 5.96 6.56v2.96c0 4.44-2.4 6.56-5.96 6.56z"/>
                <path d="m230.08 368.02c4.12 0 6.72-2.04 7.92-4.8l-2.28-1.56c-1.04 2.24-2.84 3.6-5.6 3.6-3.88 0-5.96-2.64-5.96-6.28v-3.52c0-3.64 2.12-6.28 5.88-6.28 2.56 0 4.32 1.24 5.08 3.36l2.56-1.36c-1.16-2.8-3.64-4.76-7.64-4.76-5.84 0-9.32 4.24-9.32 10.8 0 6.52 3.44 10.8 9.36 10.8z"/>
            </g>
            <g fill="#b58900">
                <path d="m61.357 411.98 5 6.88 2.28-1.68-4.96-6.8 7.96-2.64-0.84-2.64-7.96 2.56v-8.64h-2.96v8.64l-7.96-2.56-0.84 2.64 7.96 2.64-4.96 6.8 2.28 1.68z"/>
                <path d="m96.357 395.94v-2.92h-22v2.92h9.32v25h3.36v-25z"/>
                <path d="m112.56 408.94-3.08 7.84h-0.16l-3.08-7.84-3.48-8.64h-3.28l8.32 20.24-2.32 5.68h-4.8v2.72h3.04c3.12 0 4.32-1.12 5.28-3.48l10.24-25.16h-3.2z"/>
                <path d="m125.16 428.94h3.2v-11.36h0.16c1.32 2.52 3.48 3.84 6.36 3.84 5.04 0 8.08-4.04 8.08-10.8s-3.04-10.8-8.08-10.8c-2.88 0-5.04 1.32-6.36 3.84h-0.16v-3.36h-3.2zm8.48-10.36c-2.84 0-5.28-1.48-5.28-4.24v-7.44c0-2.76 2.44-4.24 5.28-4.24 3.72 0 5.88 2.48 5.88 6.2v3.52c0 3.72-2.16 6.2-5.88 6.2z"/>
                <path d="m157.72 421.42c4.08 0 7.04-2 8.28-4.76l-2.36-1.6c-1.08 2.24-3.16 3.6-5.92 3.6-3.88 0-6.32-2.64-6.32-6.28v-0.96h15.28v-1.52c0-5.84-3.6-10.08-9.16-10.08-5.6 0-9.48 4.24-9.48 10.84 0 6.52 3.76 10.76 9.68 10.76zm-0.2-18.96c3.4 0 5.72 2.48 5.72 6.12v0.44h-11.84v-0.28c0-3.6 2.6-6.28 6.12-6.28z"/>
            </g>
            <g fill="#dc322f">
                <path d="m61.357 465.38 5 6.88 2.28-1.68-4.96-6.8 7.96-2.64-0.84-2.64-7.96 2.56v-8.64h-2.96v8.64l-7.96-2.56-0.84 2.64 7.96 2.64-4.96 6.8 2.28 1.68z"/>
                <path d="m85.277 474.82c6.2 0 9.76-3.12 9.76-8.28 0-3.64-1.8-6.68-7.28-7.64l-3-0.52c-3.96-0.68-5.24-2.28-5.24-4.76 0-3.16 2.12-4.8 5.88-4.8 3.48 0 5.48 1.4 7.04 3.44l2.36-2.04c-1.88-2.68-4.92-4.28-9.36-4.28-5.68 0-9.32 2.64-9.32 7.76 0 3.52 1.72 6.68 7.2 7.6l3.12 0.52c3.8 0.64 5.2 2.08 5.2 4.8 0 3.36-2.2 5.32-6.24 5.32-3.36 0-5.64-1.32-7.8-4.04l-2.44 2c2.08 2.88 5.12 4.92 10.12 4.92z"/>
                <path d="m101.16 482.34h3.2v-11.36h0.16c1.32 2.52 3.48 3.84 6.36 3.84 5.04 0 8.08-4.04 8.08-10.8s-3.04-10.8-8.08-10.8c-2.88 0-5.04 1.32-6.36 3.84h-0.16v-3.36h-3.2zm8.48-10.36c-2.84 0-5.28-1.48-5.28-4.24v-7.44c0-2.76 2.44-4.24 5.28-4.24 3.72 0 5.88 2.48 5.88 6.2v3.52c0 3.72-2.16 6.2-5.88 6.2z"/>
                <path d="m133.72 474.82c4.08 0 7.04-2 8.28-4.76l-2.36-1.6c-1.08 2.24-3.16 3.6-5.92 3.6-3.88 0-6.32-2.64-6.32-6.28v-0.96h15.28v-1.52c0-5.84-3.6-10.08-9.16-10.08-5.6 0-9.48 4.24-9.48 10.84 0 6.52 3.76 10.76 9.68 10.76zm-0.2-18.96c3.4 0 5.72 2.48 5.72 6.12v0.44h-11.84v-0.28c0-3.6 2.6-6.28 6.12-6.28z"/>
                <path d="m158.08 474.82c4.12 0 6.72-2.04 7.92-4.8l-2.28-1.56c-1.04 2.24-2.84 3.6-5.6 3.6-3.88 0-5.96-2.64-5.96-6.28v-3.52c0-3.64 2.12-6.28 5.88-6.28 2.56 0 4.32 1.24 5.08 3.36l2.56-1.36c-1.16-2.8-3.64-4.76-7.64-4.76-5.84 0-9.32 4.24-9.32 10.8 0 6.52 3.44 10.8 9.36 10.8z"/>
                <path d="m182.64 449.14c1.84 0 2.52-0.88 2.52-2.04v-0.64c0-1.16-0.68-2.04-2.52-2.04s-2.52 0.88-2.52 2.04v0.64c0 1.16 0.68 2.04 2.52 2.04zm-9.04 25.2h17.6v-2.72h-6.96v-17.92h-10.64v2.72h7.44v15.2h-7.44z"/>
                <path d="m215.36 474.34v-2.8h-2.88v-11.36c0-4.36-3.08-6.96-7.92-6.96-4.2 0-6.84 2-7.88 4.16l2.16 1.6c1.08-1.88 2.76-3.04 5.52-3.04 3.12 0 4.92 1.56 4.92 4.56v2.04h-4.4c-6.2 0-8.88 2.2-8.88 6 0 3.88 2.76 6.28 7.08 6.28 3.36 0 5.32-1.48 6.2-3.84h0.2c0.24 1.92 1.2 3.36 3.68 3.36zm-11.72-2.2c-2.64 0-4.28-1.12-4.28-3.24v-0.84c0-2 1.72-3.12 5.52-3.12h4.4v3.4c0 2.12-2.36 3.8-5.64 3.8z"/>
                <path d="m220.56 474.34h17.6v-2.72h-7.2v-26.88h-10.4v2.72h7.2v24.16h-7.2z"/>
            </g>
        </g>
    </g>
</svg>
